<svg id="Layer_1" data-name="Layer 1" xmlns="http://www.w3.org/2000/svg" viewBox="0 0 633.5 381"><defs><style>.cls-1,.cls-2{fill:#fff;}.cls-1{stroke:#000;stroke-miterlimit:10;}</style></defs><path class="cls-1" d="M188.3,338C182.68,344.43,80.17,288.82,88,255.16c14-60.33,375.1-20.16,375.08-19.95S158.22,203.53,142,265.89C134.42,295,192.67,333,188.3,338Z" transform="translate(-87.05 -221.41)"/><path class="cls-1" d="M344.18,256.69C351.67,254.52,418.9,358,392,471.41c-13.83,58.3-56,134-95.71,130.37-16.56-1.53-33.89-17-38.58-35.28-12.11-47,69.43-74,97.24-156.44C382,330.11,338,258.48,344.18,256.69Z" transform="translate(-87.05 -221.41)"/><path class="cls-2" d="M295.25,334.87A132.46,132.46,0,0,1,296.69,315a108.82,108.82,0,0,1,4.24-17.9,86.91,86.91,0,0,1,7-15.93A76.33,76.33,0,0,1,317.28,268a55.4,55.4,0,0,1,11.85-10.12,47.11,47.11,0,0,1,13.77-5.75,67.18,67.18,0,0,1,15.88-1.79,52.15,52.15,0,0,1,26,6.62,61.19,61.19,0,0,1,20,18.36,89.58,89.58,0,0,1,12.65,27,120.67,120.67,0,0,1-.46,66.26,86.68,86.68,0,0,1-13.81,27.43,64.81,64.81,0,0,1-21,18.13,54.06,54.06,0,0,1-25.93,6.46,49.38,49.38,0,0,1-24.41-6.34,59.86,59.86,0,0,1-19.53-17.73,87.09,87.09,0,0,1-12.66-27.33A126.39,126.39,0,0,1,295.25,334.87Zm31.43-71.63a74.68,74.68,0,0,0-21.34,30.28q-7.29,18.45-7.29,41.56a121.73,121.73,0,0,0,4.74,35.05,77.78,77.78,0,0,0,14,27.2,61.71,61.71,0,0,0,22.88,17.49c-11.07-7.75-19.84-18.54-26.43-32-7.05-14.39-10.1-34.23-9.83-49.87A138.2,138.2,0,0,1,306,306.37,96.58,96.58,0,0,1,313.77,284,132.25,132.25,0,0,1,326.68,263.24Zm-8,59.3a212.1,212.1,0,0,0,3,37.2A121.56,121.56,0,0,0,330.47,389c3.78,8.19,8.26,14.41,13.43,18.72s10.75,6.46,16.73,6.46a25.89,25.89,0,0,0,14.45-4.49c4.54-3,8.54-7.45,12-13.43a76.59,76.59,0,0,0,8-22.15,146.93,146.93,0,0,0,2.84-30.64,180.15,180.15,0,0,0-3.25-35.28q-3.26-16.21-9.06-27.55t-13.68-17.56A26.84,26.84,0,0,0,355,256.82a25.38,25.38,0,0,0-14.58,4.64,38.12,38.12,0,0,0-11.56,13.31,77,77,0,0,0-7.45,20.74A125.57,125.57,0,0,0,318.71,322.54Zm52.19-64.07q9.57,7,16.32,19.25t10.11,29.36a193.33,193.33,0,0,1,3.39,37.56q0,19.42-3.85,33.66A89.52,89.52,0,0,1,386,403.47a62.14,62.14,0,0,0,11.48-16.33A79.83,79.83,0,0,0,404,366.45a145.92,145.92,0,0,0,2.11-26.1A163.31,163.31,0,0,0,402,302.1q-4.18-17.43-12.19-28.9T370.9,258.47Z" transform="translate(-87.05 -221.41)"/><path class="cls-2" d="M514.28,420.69H447.1V414.3c4.75-.23,8.31-.84,10.68-1.8a8.91,8.91,0,0,0,5-5.41c1-2.63,1.49-6.51,1.49-11.61v-117q0-8.59-4.06-11.62t-13.13-3.84v-6.39h70a52.41,52.41,0,0,1,25.12,6.15A59.19,59.19,0,0,1,562,280.21a84,84,0,0,1,12.75,26.56,117.23,117.23,0,0,1,4.49,33,107.59,107.59,0,0,1-4.62,32.15,78.65,78.65,0,0,1-13.27,25.74,60.8,60.8,0,0,1-20.71,17A58.09,58.09,0,0,1,514.28,420.69Zm-41.61-24.54V288.73q0-13.83-1.86-19.48c-1.23-3.76-4.46-5.68-9.65-5.75a11.87,11.87,0,0,1,4.78,6.33c.77,2.53,1.15,6.37,1.15,11.57V393.23a83.78,83.78,0,0,1-.59,11.28,18.15,18.15,0,0,1-1.78,6.16,10.3,10.3,0,0,1-3.56,3.61c4.3,0,7.29-1.4,9-4.25S472.67,402.59,472.67,396.15Zm13-99.52v93.83q0,10.11,1,14.71a10.19,10.19,0,0,0,4.83,6.87q3.81,2.26,12.37,2.26a48.63,48.63,0,0,0,16.53-2.62,38.4,38.4,0,0,0,13.89-9.12A61.91,61.91,0,0,0,546.48,386a74.1,74.1,0,0,0,6.39-20.23,154.54,154.54,0,0,0,2-25.28c.16-21.43-3.58-45-17.71-62.19a40.86,40.86,0,0,0-15.6-11.75,53.13,53.13,0,0,0-20.16-3.48q-8,0-11.22,3.2t-3.91,9.18C485.85,279.41,485.64,286.49,485.64,296.63ZM525.21,414.3q10.85-1.51,19.48-10.23t13.68-24.77q5-16,5-38.35A164.13,164.13,0,0,0,561,311.64a95.45,95.45,0,0,0-7.07-23.2,48.33,48.33,0,0,0-11.35-15.87,29.54,29.54,0,0,0-8.13-5.46,61,61,0,0,0-9.24-3.13c26.73,15.64,32.62,49.35,32.44,77.66-.07,11.94-1.14,22.67-3.44,32a69.2,69.2,0,0,1-10.72,24.13A58.09,58.09,0,0,1,525.21,414.3Z" transform="translate(-87.05 -221.41)"/><path class="cls-2" d="M593.91,338a132.5,132.5,0,0,1,1.43-19.87,109.85,109.85,0,0,1,4.25-17.9,86.88,86.88,0,0,1,7-15.93,76.88,76.88,0,0,1,9.31-13.13,55.21,55.21,0,0,1,11.86-10.12,46.89,46.89,0,0,1,13.77-5.75,66.66,66.66,0,0,1,15.88-1.79,52.12,52.12,0,0,1,26,6.62,61,61,0,0,1,20,18.36,89.84,89.84,0,0,1,12.66,27,120.8,120.8,0,0,1-.47,66.26,86.87,86.87,0,0,1-13.8,27.43,64.84,64.84,0,0,1-21,18.13A54.06,54.06,0,0,1,655,423.82a49.31,49.31,0,0,1-24.4-6.34A60,60,0,0,1,611,399.75a86.63,86.63,0,0,1-12.65-27.33A126.78,126.78,0,0,1,593.91,338Zm31.44-71.63A74.68,74.68,0,0,0,604,296.68q-7.28,18.45-7.29,41.56a121.72,121.72,0,0,0,4.75,35.05,77.6,77.6,0,0,0,14,27.2A61.79,61.79,0,0,0,638.33,418c-11.06-7.76-19.84-18.54-26.43-32-7-14.39-10.09-34.23-9.83-49.87a139,139,0,0,1,2.58-26.61,96.58,96.58,0,0,1,7.79-22.38A131.51,131.51,0,0,1,625.35,266.4Zm-8,59.3a211.19,211.19,0,0,0,3,37.2,120.66,120.66,0,0,0,8.72,29.23c3.78,8.19,8.25,14.41,13.43,18.72s10.74,6.46,16.72,6.46a25.89,25.89,0,0,0,14.45-4.49c4.55-3,8.54-7.45,12-13.43s6.1-13.34,8-22.15a146.31,146.31,0,0,0,2.83-30.64,179.36,179.36,0,0,0-3.26-35.28q-3.24-16.21-9.06-27.55t-13.68-17.56A26.8,26.8,0,0,0,653.62,260a25.32,25.32,0,0,0-14.57,4.64,38.25,38.25,0,0,0-11.57,13.31A77.32,77.32,0,0,0,620,298.67,128.28,128.28,0,0,0,617.38,325.7Zm52.18-64.07a57.69,57.69,0,0,1,16.31,19.25q6.75,12.28,10.12,29.36a194.07,194.07,0,0,1,3.38,37.56q0,19.43-3.85,33.66a89.51,89.51,0,0,1-10.88,25.17,62.34,62.34,0,0,0,11.47-16.33,79.45,79.45,0,0,0,6.57-20.69,145,145,0,0,0,2.12-26.1,163.72,163.72,0,0,0-4.19-38.25q-4.2-17.43-12.2-28.9T669.56,261.63Z" transform="translate(-87.05 -221.41)"/></svg>